<svg width="28" height="28" viewBox="0 0 28 28" fill="none" xmlns="http://www.w3.org/2000/svg">
<path d="M22.8032 27.8762C22.6847 27.8762 22.5661 27.8762 22.4475 27.8762C18.6528 27.4018 14.858 26.0974 11.6562 24.0814C8.6916 22.1841 6.08272 19.5752 4.18535 16.6106C2.05082 13.4088 0.746381 9.614 0.390625 5.81927C0.390625 4.87059 0.627792 3.92189 1.22072 3.21038C1.81365 2.49887 2.64374 2.02456 3.59242 1.90597C3.71101 1.90597 3.8296 1.90597 3.94818 1.90597H7.50574C9.28452 1.90597 10.8261 3.21038 11.0633 4.98916C11.1819 6.05643 11.419 7.12374 11.7748 8.07242C12.2491 9.37686 11.8934 10.7999 10.9447 11.8672L10.1146 12.6972C11.5376 14.8317 13.3164 16.7291 15.5695 18.1522L16.3996 17.3221C17.3483 16.3734 18.8899 16.0176 20.1944 16.4919C21.143 16.8477 22.2103 17.0849 23.2776 17.2035C25.0564 17.4407 26.3608 18.9823 26.3608 20.7611V24.3186C26.3608 25.2673 26.0051 26.216 25.2935 26.8089C24.582 27.4018 23.7519 27.8762 22.8032 27.8762ZM7.50574 4.27768H3.94818C3.59243 4.27768 3.23667 4.51488 2.9995 4.75205C2.88091 4.98922 2.76233 5.22633 2.76233 5.58209C3.11809 9.02106 4.30393 12.3415 6.2013 15.3061C7.98008 18.0336 10.2332 20.4053 12.9607 22.0655C15.9253 23.9628 19.2457 25.1487 22.6847 25.5045C23.159 25.5045 23.3962 25.3858 23.6333 25.1487C23.8705 24.9115 23.9891 24.6744 23.9891 24.3186V20.7611C23.9891 20.1681 23.5148 19.6938 22.9218 19.5752C21.736 19.4566 20.5501 19.1008 19.3643 18.6265C18.8899 18.5079 18.4156 18.5079 18.0598 18.8637L16.5182 20.4053C16.1625 20.761 15.5695 20.8796 15.0952 20.6424C11.8934 18.8637 9.28452 16.2548 7.50574 13.053C7.38716 12.5787 7.50575 11.9857 7.8615 11.63L9.4031 10.0884C9.64027 9.85122 9.75887 9.25829 9.64028 8.90253C9.16594 7.71668 8.92877 6.53083 8.6916 5.34497C8.6916 4.75205 8.09867 4.27768 7.50574 4.27768ZM21.6174 12.5786C21.0245 12.5786 20.5501 12.2229 20.4315 11.63C20.0758 9.73262 18.5342 8.30958 16.6368 7.83524C16.0439 7.71665 15.5695 7.12371 15.6881 6.4122C15.8067 5.81927 16.3996 5.34495 17.1111 5.46353C19.9572 6.05646 22.2103 8.19101 22.6847 11.0371C22.8033 11.63 22.4475 12.3415 21.736 12.4601C21.736 12.4601 21.736 12.5786 21.6174 12.5786ZM26.3608 12.4601C25.7679 12.4601 25.2935 11.9857 25.1749 11.3928C24.7006 7.00514 21.2616 3.5662 16.7554 2.97327C16.1625 2.85468 15.6881 2.26171 15.6881 1.66879C15.6881 1.07586 16.3996 0.601562 16.9926 0.601562C22.5661 1.19449 26.8352 5.46355 27.4281 11.0371C27.5467 11.63 27.0723 12.2229 26.3608 12.3415C26.4794 12.46 26.3608 12.4601 26.3608 12.4601Z" fill="#2E2E2E"/>
</svg>
