<svg width="32" height="43" viewBox="0 0 32 43" fill="none" xmlns="http://www.w3.org/2000/svg">
<path d="M22.25 3.97169H19.535C19.02 2.48272 17.63 1.41333 16 1.41333C14.37 1.41333 12.98 2.48272 12.4625 3.97169H9.75C9.06 3.97169 8.5 4.54476 8.5 5.25087V10.3676C8.5 11.0737 9.06 11.6468 9.75 11.6468H22.25C22.94 11.6468 23.5 11.0737 23.5 10.3676V5.25087C23.5 4.54476 22.94 3.97169 22.25 3.97169Z" stroke="black"/>
<path d="M28.5 6.53004H26V10.3676C26 12.4833 24.3175 14.2051 22.25 14.2051H9.75C7.6825 14.2051 6 12.4833 6 10.3676V6.53004H3.5C2.1225 6.53004 1 7.67875 1 9.0884V39.7887C1 41.2239 2.0975 42.347 3.5 42.347H28.5C29.9025 42.347 31 41.2239 31 39.7887V9.0884C31 7.65316 29.9025 6.53004 28.5 6.53004ZM15.635 29.1817L10.635 34.2985C10.39 34.5466 10.07 34.672 9.75 34.672C9.43 34.672 9.11 34.5466 8.865 34.2985L6.365 31.7401C5.8775 31.2412 5.8775 30.4302 6.365 29.9313C6.8525 29.4325 7.645 29.4325 8.1325 29.9313L9.75 31.584L13.865 27.373C14.3525 26.8741 15.145 26.8741 15.6325 27.373C16.12 27.8719 16.1225 28.6803 15.635 29.1817ZM15.635 18.9483L10.635 24.065C10.39 24.3132 10.07 24.4385 9.75 24.4385C9.43 24.4385 9.11 24.3132 8.865 24.065L6.365 21.5067C5.8775 21.0078 5.8775 20.1968 6.365 19.6979C6.8525 19.199 7.645 19.199 8.1325 19.6979L9.75 21.3506L13.865 17.1396C14.3525 16.6407 15.145 16.6407 15.6325 17.1396C16.12 17.6384 16.1225 18.4469 15.635 18.9483ZM24.75 32.1136H19.75C19.06 32.1136 18.5 31.5405 18.5 30.8344C18.5 30.1283 19.06 29.5553 19.75 29.5553H24.75C25.44 29.5553 26 30.1283 26 30.8344C26 31.5405 25.44 32.1136 24.75 32.1136ZM24.75 21.8802H19.75C19.06 21.8802 18.5 21.3071 18.5 20.601C18.5 19.8949 19.06 19.3218 19.75 19.3218H24.75C25.44 19.3218 26 19.8949 26 20.601C26 21.3071 25.44 21.8802 24.75 21.8802Z" stroke="black"/>
</svg>
