<svg width="36" height="48" viewBox="0 0 36 48" fill="none" xmlns="http://www.w3.org/2000/svg">
<path d="M25.5 3H22.242C21.624 1.254 19.956 0 18 0C16.044 0 14.376 1.254 13.755 3H10.5C9.672 3 9 3.672 9 4.5V10.5C9 11.328 9.672 12 10.5 12H25.5C26.328 12 27 11.328 27 10.5V4.5C27 3.672 26.328 3 25.5 3Z" fill="#0D82CD"/>
<path d="M33 6H30V10.5C30 12.981 27.981 15 25.5 15H10.5C8.019 15 6 12.981 6 10.5V6H3C1.347 6 0 7.347 0 9V45C0 46.683 1.317 48 3 48H33C34.683 48 36 46.683 36 45V9C36 7.317 34.683 6 33 6ZM17.562 32.562L11.562 38.562C11.268 38.853 10.884 39 10.5 39C10.116 39 9.732 38.853 9.438 38.562L6.438 35.562C5.853 34.977 5.853 34.026 6.438 33.441C7.023 32.856 7.974 32.856 8.559 33.441L10.5 35.379L15.438 30.441C16.023 29.856 16.974 29.856 17.559 30.441C18.144 31.026 18.147 31.974 17.562 32.562ZM17.562 20.562L11.562 26.562C11.268 26.853 10.884 27 10.5 27C10.116 27 9.732 26.853 9.438 26.562L6.438 23.562C5.853 22.977 5.853 22.026 6.438 21.441C7.023 20.856 7.974 20.856 8.559 21.441L10.5 23.379L15.438 18.441C16.023 17.856 16.974 17.856 17.559 18.441C18.144 19.026 18.147 19.974 17.562 20.562ZM28.5 36H22.5C21.672 36 21 35.328 21 34.5C21 33.672 21.672 33 22.5 33H28.5C29.328 33 30 33.672 30 34.5C30 35.328 29.328 36 28.5 36ZM28.5 24H22.5C21.672 24 21 23.328 21 22.5C21 21.672 21.672 21 22.5 21H28.5C29.328 21 30 21.672 30 22.5C30 23.328 29.328 24 28.5 24Z" fill="#0D82CD"/>
</svg>
