<svg width="40" height="52" viewBox="0 0 40 52" fill="none" xmlns="http://www.w3.org/2000/svg">
<path d="M38.8917 30.2743C38.3114 22.8174 34.7932 18.1444 31.6895 14.0208C28.8155 10.2032 26.3333 6.90653 26.3333 2.04345C26.3333 1.65283 26.1117 1.29579 25.7602 1.11679C25.4076 0.936713 24.9839 0.966205 24.6634 1.19609C20.0021 4.48769 16.1128 10.0354 14.7542 15.3288C13.811 19.014 13.6863 23.157 13.6687 25.8932C9.36406 24.9859 8.38892 18.6316 8.37863 18.5624C8.33014 18.2328 8.12609 17.946 7.82921 17.7893C7.52927 17.6348 7.17668 17.6235 6.87258 17.7721C6.64686 17.8799 1.33191 20.5449 1.02266 31.1856C1.00099 31.5396 1 31.8947 1 32.2497C1 42.5873 9.52378 50.9984 20 50.9984C20.0144 50.9994 20.0299 51.0014 20.0423 50.9984C20.0464 50.9984 20.0505 50.9984 20.0556 50.9984C30.5061 50.9688 39 42.569 39 32.2497C39 31.7299 38.8917 30.2743 38.8917 30.2743ZM20 48.9152C16.5076 48.9152 13.6667 45.9288 13.6667 42.2578C13.6667 42.1327 13.6657 42.0065 13.6749 41.8519C13.7171 40.3038 14.0151 39.2469 14.3419 38.544C14.9542 39.842 16.0489 41.0351 17.8271 41.0351C18.4105 41.0351 18.8827 40.5692 18.8827 39.9935C18.8827 38.5105 18.9136 36.7996 19.2878 35.2554C19.6208 33.8863 20.4165 32.4297 21.4247 31.262C21.8731 32.7776 22.7473 34.0043 23.6008 35.2015C24.8223 36.9144 26.085 38.6854 26.3067 41.7054C26.3201 41.8844 26.3335 42.0645 26.3335 42.2578C26.3333 45.9287 23.4924 48.9152 20 48.9152Z" stroke="#2E2E2E"/>
</svg>
