<svg width="38" height="50" viewBox="0 0 38 50" fill="none" xmlns="http://www.w3.org/2000/svg">
<path d="M37.8917 29.2743C37.3114 21.8174 33.7932 17.1444 30.6895 13.0208C27.8155 9.20321 25.3333 5.90653 25.3333 1.04345C25.3333 0.652826 25.1117 0.295794 24.7602 0.116791C24.4076 -0.0632874 23.9839 -0.0337953 23.6634 0.196087C19.0021 3.48769 15.1128 9.03544 13.7542 14.3288C12.811 18.014 12.6863 22.157 12.6687 24.8932C8.36406 23.9859 7.38892 17.6316 7.37863 17.5624C7.33014 17.2328 7.12609 16.946 6.82921 16.7893C6.52927 16.6348 6.17668 16.6235 5.87258 16.7721C5.64686 16.8799 0.331906 19.5449 0.0226611 30.1856C0.000989215 30.5396 0 30.8947 0 31.2497C0 41.5873 8.52378 49.9984 19 49.9984C19.0144 49.9994 19.0299 50.0014 19.0423 49.9984C19.0464 49.9984 19.0505 49.9984 19.0556 49.9984C29.5061 49.9688 38 41.569 38 31.2497C38 30.7299 37.8917 29.2743 37.8917 29.2743ZM19 47.9152C15.5076 47.9152 12.6667 44.9288 12.6667 41.2578C12.6667 41.1327 12.6657 41.0065 12.6749 40.8519C12.7171 39.3038 13.0151 38.2469 13.3419 37.544C13.9542 38.842 15.0489 40.0351 16.8271 40.0351C17.4105 40.0351 17.8827 39.5692 17.8827 38.9935C17.8827 37.5105 17.9136 35.7996 18.2878 34.2554C18.6208 32.8863 19.4165 31.4297 20.4247 30.262C20.8731 31.7776 21.7473 33.0043 22.6008 34.2015C23.8223 35.9144 25.085 37.6854 25.3067 40.7054C25.3201 40.8844 25.3335 41.0645 25.3335 41.2578C25.3333 44.9287 22.4924 47.9152 19 47.9152Z" fill="#0D82CD"/>
</svg>
