<svg width="28" height="28" viewBox="0 0 28 28" fill="none" xmlns="http://www.w3.org/2000/svg">
<path d="M27.5626 21.7329L22.7129 16.9068C22.1297 16.3265 21.1842 16.3265 20.601 16.9068L18.5916 18.9065C14.6519 16.6951 11.3597 13.4188 9.1376 9.49828L11.2833 7.36295C11.8666 6.78259 11.8666 5.84157 11.2833 5.26121L6.4337 0.435274C5.85045 -0.145091 4.90491 -0.145091 4.32172 0.435274L1.22487 3.51711L1.23685 3.52904C0.140469 4.42031 -0.308935 5.96241 0.224141 7.48236C3.52753 16.9027 11.1512 24.4893 20.6173 27.7767C22.0763 28.2834 23.551 27.8992 24.4625 26.9134L24.4657 26.9165L27.5625 23.8346C28.1458 23.2543 28.1458 22.3133 27.5626 21.7329Z" fill="#2E2E2E"/>
</svg>
